<?xml version="1.0" encoding="UTF-8"?>
<svg xmlns="http://www.w3.org/2000/svg" viewBox="0 0 595.28 841.89">
  <defs>
    <style>
      .cls-1 {
        fill: #d0e29f;
      }

      .cls-2 {
        fill: #d3d6c9;
      }

      .cls-3, .cls-4, .cls-5, .cls-6, .cls-7, .cls-8 {
        stroke-miterlimit: 10;
      }

      .cls-3, .cls-4, .cls-6 {
        stroke: #002e0a;
      }

      .cls-3, .cls-7 {
        fill: #eff4e4;
      }

      .cls-4 {
        fill: #3180ff;
      }

      .cls-9 {
        fill: #6bd6b8;
      }

      .cls-5 {
        fill: #ebf2f2;
      }

      .cls-5, .cls-7, .cls-8 {
        stroke: #000;
      }

      .cls-10 {
        fill: #d4ea86;
      }

      .cls-11 {
        fill: #fff;
      }

      .cls-6 {
        fill: none;
      }

      .cls-12 {
        fill: #d3e5e4;
      }
    </style>
  </defs>
  <g id="nek">
    <path class="cls-3" d="M278.67,247.28c-3.89,2.33,5.21,18.94-.64,26.96-.49.67-1.47,1.8-1.28,3.21.43,3.36,5.53,5.57,7.03,5.94,4.82,1.18,9.68.73,10.75.45,1.93-.51,6.97-2.78,7.68-5.75.41-1.71-.67-3.19-1.28-4.28-5.01-8.89,1.58-19.38,0-24.82-.74-2.56-2.15-1.13-5.56-.64-6.37.91-5.49.72-10.25-.1-3.12-.54-5.83-1.33-6.44-.97Z"/>
  </g>
  <g id="linkervoet">
    <path class="cls-3" d="M219.37,690.55c-7.25,3-4,12.42-12.51,22.13-7.53,8.59-16.61,8.68-16.36,12.83.22,3.61,7.31,6.68,13.15,7.06,11.01.72,20.14-7.95,22.13-9.94,6.06-6.07,6.86-11.36,13.47-13.47,3.23-1.03,4.96-.38,7.06-2.25,4.12-3.67,2.91-11.06,2.57-13.15-.48-2.92-1.26-7.65-4.17-8.66-2.9-1-4.8,2.77-10.58,4.81-7.23,2.54-9.8-1.41-14.75.64Z"/>
  </g>
  <g id="rechtervoet">
    <path class="cls-3" d="M359.04,690.55c7.25,3,4,12.42,12.51,22.13,7.53,8.59,16.61,8.68,16.36,12.83-.22,3.61-7.31,6.68-13.15,7.06-11.01.72-20.14-7.95-22.13-9.94-6.06-6.07-6.86-11.36-13.47-13.47-3.23-1.03-4.96-.38-7.06-2.25-4.12-3.67-2.91-11.06-2.57-13.15.48-2.92,1.26-7.65,4.17-8.66,2.9-1,4.8,2.77,10.58,4.81,7.23,2.54,9.8-1.41,14.75.64Z"/>
  </g>
  <g id="linker_bovenbeen" data-name="linker bovenbeen">
    <path class="cls-3" d="M243.76,460.04c-4.45,2.44-6.01,5.29-11.83,51.43-.08.6-1.92,9.16,0,19.5,1.37,7.41,4.15,10.9,5.54,10.45,5.51-1.79,10.38-1.3,12.9-.23,2.09.88,4.94,1.15,8.7,2.76,2.94,1.25,6.31,7.76,6.92,6.58,4.27-8.33,9.18-22.32,12.96-40.4.61-2.94,1.34-7.23,2.12-10.28,1.99-7.77-1.45-17.31,4.37-24.16,1.94-2.29,2.94-6.31,1.03-9.87-4.69-8.74-29.36-13.09-42.71-5.76Z"/>
  </g>
  <g id="rechter_boven_been" data-name="rechter boven been">
    <path class="cls-3" d="M333.57,462.15c4.45,2.44,6.01,5.29,11.83,51.43.08.6,1.92,9.16,0,19.5-1.37,7.41-4.15,10.9-5.54,10.45-5.51-1.79-10.38-1.3-12.9-.23-2.09.88-4.94,1.15-8.7,2.76-2.94,1.25-6.31,7.76-6.92,6.58-4.27-8.33-9.18-22.32-12.96-40.4-.61-2.94-1.34-7.23-2.12-10.28-1.99-7.77,1.45-17.31-4.37-24.16-1.94-2.29-2.94-6.31-1.03-9.87,4.69-8.74,29.36-13.09,42.71-5.76Z"/>
  </g>
  <g id="schouders">
    <path class="cls-3" d="M237.42,281.49c-2.07,1.42-2.77,2.25-3.92,3.51-5.22,5.7.25,22.95,5.64,28.48,2.6-7.64,14.69-15.44,25.24-11.24,4.28,1.71,10.8,4.55,15.39,5.05,8.3.91,18.81.16,25.9-4.12,5.88-3.55,12.9-5.22,19.27-1.11,4.23,2.72,8.33,5.64,10.88,11.75,4.08-3.97,3.74-3.75,6.02-7.34.83-1.31,3.27-9.41,3.55-10.94.52-2.89-.56-7.73-2.78-9.66-11.08-9.65-21.28-11.15-35.95-10.44-1.19.06-3.81-.2-4.35.85-.99,1.92-.3,2.65-1.32,3.88-3.18,3.82-9.59,4.5-14.34,3.58-2.78-.54-8.05-2.15-8.95-4.18s-.61-2.33-1.4-3.43c-2.45-3.42-30.89-.12-38.86,5.36Z"/>
  </g>
  <g id="hoofd">
    <path class="cls-3" d="M341.84,195.57c0,22.53-11.22,38.38-27.48,47.34-10.63,5.86-14.32,13.63-23.67,13.63-8.57,0-17.47-10.65-24.57-15.09-16.29-10.2-26.59-22.43-26.59-45.88,0-33.67,22.9-52.69,51.16-52.69s51.16,19.01,51.16,52.69Z"/>
    <path class="cls-3" d="M266.18,118.38c-2.66.43-5.39-2.07-5.19-4.76s3.26-4.76,5.83-3.94,3.87,4.28,2.48,6.59c-.32.52-.74.98-1,1.53-.3.63-.37,1.33-.42,2.02-.82,10.52,1.92,22.02,10.05,28.75,1.52,1.25-4.14,6.94-6.35,6.21-2.56-.85-4.28-7.48-5.01-9.72-2.83-8.58-3.03-18.04-.39-26.69Z"/>
    <path class="cls-3" d="M310.82,118.38c2.66.43,5.39-2.07,5.19-4.76s-3.26-4.76-5.83-3.94-3.87,4.28-2.48,6.59c.32.52.74.98,1,1.53.3.63.37,1.33.42,2.02.82,10.52-1.92,22.02-10.05,28.75-1.52,1.25,4.14,6.94,6.35,6.21,2.56-.85,4.28-7.48,5.01-9.72,2.83-8.58,3.03-18.04.39-26.69Z"/>
    <ellipse class="cls-9" cx="265.38" cy="221.5" rx="7.95" ry="2.77"/>
    <ellipse class="cls-9" cx="316.41" cy="221.5" rx="7.95" ry="2.77"/>
  </g>
  <g id="heupen">
    <path class="cls-3" d="M240.94,461.94c12.93-8.08,31.88-8.4,43.7,1.51,1.8,1.51,1.77,4.37,4.27,4.11,1.99-.2,1.14.42,3.21-1.39,11.3-9.85,29.72-9.69,43.84-2.59-1.95-13.1-3.4-20.24-9.34-30.46-5.05-8.67-6.05-11.36-5.49-10.25,1.18,2.35-10.18,5.03-15.03,6.47-8.03,2.39-16.46,3.05-24.73,2.08-7.82-.92-24.55-14.5-28.41-7.82-5.66,9.81-12.13,26.15-12.03,38.33Z"/>
  </g>
  <g id="rechter_onder_arm" data-name="rechter onder arm">
    <path class="cls-3" d="M453.41,312.08c11.06-.47,22.12-.94,33.19-1.4,1.4-2.59,1.17-4.32,0-6.97-6.14-.58-10.29-1.87-15.08-3.11-11.44-2.97-22.11-7.31-33.98-7.63-7.53-.21-16.08,4.59-11.09,12.54,4.72,7.52,19.68,6.89,26.98,6.58Z"/>
  </g>
  <g id="linker_onder_arm" data-name="linker onder arm">
    <path class="cls-3" d="M123.5,312.08c-11.06-.47-22.12-.94-33.19-1.4-1.4-2.59-1.17-4.32,0-6.97,6.14-.58,10.29-1.87,15.08-3.11,11.44-2.97,22.11-7.31,33.98-7.63,7.53-.21,16.08,4.59,11.09,12.54-4.72,7.52-19.68,6.89-26.98,6.58Z"/>
  </g>
  <g id="linker_onderbeen" data-name="linker onderbeen">
    <path class="cls-3" d="M259.96,572.45c-5.1-6.05-15.63-9.1-22.87-6.13-11.03,4.53-12.35,22.21-13.06,39.9-.05-1.17-.28-2.7-.15-4.51-8-2.29-16-7.78-17.48-15.97.4,5.58,1.62,11.26,4.78,15.87,1.83,2.68,5.13,6.05,8.46,6.74,3.17.65,4.12.22,4.34-1.02-.03.76-.06,1.52-.09,2.28-.22,5.8-.09,10.8.22,15.21-.23-1.57-.44-3.33-.45-5.27-15.67-3.24-31.82-12.6-35.84-28.1,1.58,10.64,4.75,21.36,11.47,29.76,3.91,4.88,10.72,10.87,17.21,11.7,5.93.76,7.79-.11,8.14-2.3,1.82,16.04,5.42,23.34-.75,34.55-1.9,3.45-6.26,10.07-4.4,17.56.28,1.12,1.03,5.63,7.83,8.21,5.17,1.96,11.53,1.06,15.03-2.12,5.59-5.07,3.66-11.87,2.65-21.2-.66-6.07,3.23-22.01,10.99-53.91,6.75-27.71,9.26-34.96,3.96-41.25Z"/>
  </g>
  <g id="rechter_onderbeen" data-name="rechter onderbeen">
    <path class="cls-3" d="M319.04,572.45c5.1-6.05,15.63-9.1,22.87-6.13,11.03,4.53,12.35,22.21,13.06,39.9.05-1.17.28-2.7.15-4.51,8-2.29,16-7.78,17.48-15.97-.4,5.58-1.62,11.26-4.78,15.87-1.83,2.68-5.13,6.05-8.46,6.74-3.17.65-4.12.22-4.34-1.02.03.76.06,1.52.09,2.28.22,5.8.09,10.8-.22,15.21.23-1.57.44-3.33.45-5.27,15.67-3.24,31.82-12.6,35.84-28.1-1.58,10.64-4.75,21.36-11.47,29.76-3.91,4.88-10.72,10.87-17.21,11.7-5.93.76-7.79-.11-8.14-2.3-1.82,16.04-5.42,23.34.75,34.55,1.9,3.45,6.26,10.07,4.4,17.56-.28,1.12-1.03,5.63-7.83,8.21-5.17,1.96-11.53,1.06-15.03-2.12-5.59-5.07-3.66-11.87-2.65-21.2.66-6.07-3.23-22.01-10.99-53.91-6.75-27.71-9.26-34.96-3.96-41.25Z"/>
  </g>
  <g id="rechter_hand-2" data-name="rechter hand">
    <path class="cls-3" d="M485.4,310.8c2.03,6.48,12.51,7.8,15.49,8.17,1.96.25,4.67,1.29,6.17,1.07.76-.11.96-1.14,1.08-1.54.1-.34-.43-.77-1.25-1.24-2.3-1.31-6.9-2.88-6.74-3.29.15-.38,3.94.3,9.43.92,2.27.26,4.84.51,7.56.67,1.13.07,3.69.81,4.94.5,1.77-.45,2.08-2.08,2.05-2.54-.09-1.73-19.51-2.49-19.48-2.5,4.58-1.47,19.61,1.46,19.98-.45.11-.54.06-2.55-1.48-2.66,0,0-1.95-.19-2.09-.19-1.01-.05-4.59,0-5.48-.06-.95-.06-2.81.03-3.83-.15-.7-.12-1.4-.24-2.06-.3-2.9-.27-4.79-.84-4.8-.72,0,.22,8.03.73,13.76.15,2.64-.27,5.5-.36,5.47-1.51-.03-1-.12-1-.95-1.66-1.18-.93-2.57-1-5.54-1.07-1.38-.03-3.74.06-8.49-.23-5.82-.35-5.79-.67-10.24-.91-6.07-.32-9.14-.46-10.99.91-2.61,1.92-3.4,5.75-2.5,8.63Z"/>
  </g>
  <g id="linker_hand" data-name="linker hand">
    <path class="cls-3" d="M91.5,310.68c-2.03,6.48-12.51,7.8-15.49,8.17-1.96.25-4.67,1.29-6.17,1.07-.76-.11-.96-1.14-1.08-1.54-.1-.34.43-.77,1.25-1.24,2.3-1.31,6.9-2.88,6.74-3.29-.15-.38-3.94.3-9.43.92-2.27.26-4.84.51-7.56.67-1.13.07-3.69.81-4.94.5-1.77-.45-2.08-2.08-2.05-2.54.09-1.73,19.51-2.49,19.48-2.5-4.58-1.47-19.61,1.46-19.98-.45-.11-.54-.06-2.55,1.48-2.66,0,0,1.95-.19,2.09-.19,1.01-.05,4.59,0,5.48-.06.95-.06,2.81.03,3.83-.15.7-.12,1.4-.24,2.06-.3,2.9-.27,4.79-.84,4.8-.72,0,.22-8.03.73-13.76.15-2.64-.27-5.5-.36-5.47-1.51.03-1,.12-1,.95-1.66,1.18-.93,2.57-1,5.54-1.07,1.38-.03,3.74.06,8.49-.23,5.82-.35,5.79-.67,10.24-.91,6.07-.32,9.14-.46,10.99.91,2.61,1.92,3.4,5.75,2.5,8.63Z"/>
  </g>
  <g id="torso">
    <path class="cls-3" d="M319.76,420.19c-1.66-2.78-2.89-5.37-5.81-7.82-3.12-2.63-4.48-3.13-5.74-7.38-11.08,5.17-27.08,4.56-36.95.38-3.46,8.3-12.82,9.39-15.12,12.76-6.39,9.37-4.66,11.89-4.54,15.7.2,6.53,26.64,8.93,49.98,7.44,2.32-.15,20.59-.18,22.02-8.53.43-2.53-1.16-8.06-3.85-12.54Z"/>
    <path class="cls-3" d="M304.17,394.4c-.13-.58-.22-1.15-.26-1.69-.65-8.98,4.92-8.72,5.91-17.06,1.55-13.01,7.85-17.48,6.68-20.64-1.52-4.12-10.47,4.81-25.99,4.86-7.27.02-13.36-1.82-13.36-1.82-10.24-3.1-15.42-8.73-16.71-6.07-1.53,3.17,5.98,10.83,7.42,26.11.62,6.54,7.18,9.07,6.08,14.4-.14.67-.63,2-.23,2.56,10.11,3.11,20.63,2.95,27.28,1.01-.1-.35,3.25-1.32,3.18-1.66"/>
    <path class="cls-3" d="M273.32,394.48c-.91,1.41,2.91,2.63,2.08,6.69-.45,2.21-4.36,3.04-4.13,4.2.64,3.24,10.34,4.09,14.58,4.16,4.42.07,1.39.25,8.76-.22,6.2-.39,13.41-2.04,13.94-3.57.59-1.67-3.22-2.24-4.94-4.98-1.59-2.55,1.04-5.23.55-6.36-.74-1.71-2.61,2.57-12.56,2.4-3.67-.06-7.36-.51-7.36-.51-7.42-1.07-10.01-3.24-10.94-1.81Z"/>
    <path class="cls-3" d="M258.16,343.07c-1.36,4.63-2.34,8.96,2.17,10.69.61-2.68,8.13.79,10.64,1.91,10.51,4.7,22.67,6.74,33.45,2.7,2.79-1.04,5.41-2.6,8.33-3.16,2.49-.48,1.37,1.11,3.9.87,2.53-.25,1.52.06,3.24-2.05,1.76-2.16,1.9-7.96-.14-10.04,9.51-3.55,19.53-12.91,19.3-23.06-.14-6.11-4.92-11.84-9.95-15.97-2.98-2.44-6.8-5.11-11.02-5.26-8.59-.3-12.25,4.03-20.44,6.64-7.81,2.49-25.78-.97-38.78-5.35-4.7-1.58-9.64,1.8-14.56,5.42-6.82,5-10.03,12.1-7.69,21.81,4.39,18.25,30.33,19.89,40.21,5.53"/>
    <path class="cls-6" d="M296.24,331.21c4.48,6.45,11.79,10.86,19.59,11.8"/>
  </g>
  <g id="outfit">
    <path class="cls-4" d="M292.35,341.79c-.75,6.36-1.72,13.84,1.71,19.26,2.14,3.38,5.58,5.68,8.56,8.35s5.72,6.18,5.61,10.18-2.46,8.1-4.05,14.81c5.99,15.36,14.34,18.34,24.77,31.11,10.43,12.77,19.54,28.58,16.96,44.87-.34,2.17-.98,4.45-2.62,5.92-1.59,1.42-3.83,1.81-5.94,2.14-12.04,1.88-24.08,3.76-36.12,5.64-3.41.53-7.5.82-9.69-1.84-2.47-3.01-1.22-8.46-1.91-11.26-.17-.69-.77-.4-1.93-.57-1.12,5-.47,7.51-3.83,9.25s-7.39,1.04-11.1.3c-8.92-1.77-17.83-3.55-26.75-5.32-4.37-.87-9.3-2.14-11.36-6.08-1.01-1.93-1.13-4.2-1.11-6.38.28-21.62,13.45-41.6,30.83-54.47,2.6-1.92,8.28-9.59,9.35-12.64,2.2-6.27-7.65-11.74-5.98-18.17.7-2.69,4.53-7.53,6.24-9.72,5.24-6.73,6-7.37,6.35-15.75.33-7.86-1.35-7.99,1.94-8.4,1.28-.16,8.28-1.29,10.07-1.22,11.27.47,22.66,6.52,33.35,2.9,8.75-2.97,14.55-12.84,12.88-21.92-.78-4.23-2.92-8.06-4.63-12.01-4.39-10.19-5.91-21.61-4.33-32.59-3.21-1.9-6.84-3.08-10.55-3.45-1.43-.14-2.97-.13-4.15.68-1.04.72-1.6,1.93-2.1,3.09-3.13,7.2-6.04,14.7-11.25,20.56s-13.43,9.83-20.96,7.63c-9.51-2.77-13.98-13.66-15.47-23.45-.38-2.49-.83-5.31-2.91-6.73-1.06-.72-2.38-.94-3.66-1.1-4.12-.5-9.38,2.03-13.52,2.49-6.68.76-1.81,7.65-2.29,12.34-.71,6.98-3.27,13.72-4.9,20.51-2.53,10.49-2.69,23.12,5.37,30.29,6.32,5.62,15.75,5.99,24.1,4.6,4-.66,10.98-1.83,14.95-2.64"/>
  </g>
  <g id="rechter_boven_arm" data-name="rechter boven arm">
    <g>
      <path class="cls-3" d="M355.69,302.29c-.03.89-.04,1.85.6,2.59.95,1.1,2.91,1.28,4.61,1.36,17.45.8,34.94,1.04,52.41.72.17-4.3.33-8.6.5-12.9.02-.47.02-.97-.34-1.35-.36-.38-1-.53-1.59-.65-14.49-3.01-29.31-6.59-44.12-8.49-15.34-1.97-11.75,10.04-12.07,18.72Z"/>
      <path class="cls-3" d="M365.85,295.23c0,10.26-8.87,15.34-18.25,15.34s-15.71-5.07-15.71-15.34,4.29-17.27,13.62-18.21c14.79-1.5,20.34,7.95,20.34,18.21Z"/>
      <circle class="cls-7" cx="419.46" cy="299.57" r="11.24"/>
    </g>
  </g>
  <g id="linker_boven_arm" data-name="linker boven arm">
    <g>
      <path class="cls-3" d="M218.37,302.17c.03.89.04,1.85-.6,2.59-.95,1.1-2.91,1.28-4.61,1.36-17.45.8-34.94,1.04-52.41.72-.17-4.3-.33-8.6-.5-12.9-.02-.47-.02-.97.34-1.35.36-.38,1-.53,1.59-.65,14.49-3.01,29.31-6.59,44.12-8.49,15.34-1.97,11.75,10.04,12.07,18.72Z"/>
      <path class="cls-3" d="M208.22,295.11c0,10.26,8.87,15.34,18.25,15.34s15.71-5.07,15.71-15.34c0-10.26-4.29-17.27-13.62-18.21-14.79-1.5-20.34,7.95-20.34,18.21Z"/>
      <circle class="cls-7" cx="154.6" cy="299.45" r="11.24"/>
    </g>
  </g>
  <g id="ogen">
    <path class="cls-5" d="M284.76,192.22c0,6.49-2.34,12.34-6.09,16.47-3.47,3.82-8.15,6.16-13.29,6.16-10.7,0-19.38-10.13-19.38-22.63,0-4.63,1.4-8.25,1.4-8.25.59-1.28,1.8-3.93,4.36-5.6,3.44-2.24,6.25-2.73,11.91-1.09,3.89,1.12,9.28-4.15,13.15-3.33,6.2,1.31,7.94,10.77,7.94,18.27Z"/>
    <path class="cls-8" d="M282.92,180.22c.37,1.05-1.98-2.62-6.18-3.49-3.35-.69-7.12.67-10.02,2.22-5.15,2.75-9.6,1.73-12.12,1.99-4.06.41-6.07.74-6.46,1.54-.73,1.49-.83,1.94-.73,1.49.29-1.36,1.84-6.58,5.75-10.81,1.54-1.66,3.69-3.34,5.97-4.26,2.68-1.07,5.52-1.23,7.41-1.23,8.89,0,14.94,8.41,16.39,12.55Z"/>
    <path class="cls-5" d="M296.81,192.22c0,6.49,2.34,12.34,6.09,16.47,3.47,3.82,8.15,6.16,13.29,6.16,10.7,0,19.38-10.13,19.38-22.63,0-4.63-1.4-8.25-1.4-8.25-.59-1.28-1.8-3.93-4.36-5.6-3.44-2.24-6.25-2.73-11.91-1.09-3.89,1.12-9.28-4.15-13.15-3.33-6.2,1.31-7.94,10.77-7.94,18.27Z"/>
    <path class="cls-8" d="M298.66,180.22c-.37,1.05,1.98-2.62,6.18-3.49,3.35-.69,7.12.67,10.02,2.22,5.15,2.75,9.6,1.73,12.12,1.99,4.06.41,6.07.74,6.46,1.54.73,1.49.83,1.94.73,1.49-.29-1.36-1.84-6.58-5.75-10.81-1.54-1.66-3.69-3.34-5.97-4.26-2.68-1.07-5.52-1.23-7.41-1.23-8.89,0-14.94,8.41-16.39,12.55Z"/>
    <path class="cls-8" d="M265.16,193.4c0,1.21-.19,3.3-.42,3.3s-.42-2.09-.42-3.3.19-3.36.42-3.36.42,2.14.42,3.36Z"/>
    <path class="cls-8" d="M316.19,194.36c0,1.21-.19,3.3-.42,3.3s-.42-2.09-.42-3.3.19-3.36.42-3.36.42,2.14.42,3.36Z"/>
    <path d="M239.76,178.82c-3.92-2.91-6.72-7.07-9.12-11.32,4.83,8.58,13.76,12.54,23.07,13.72-4.14,2.71-10.32.3-13.95-2.39Z"/>
    <path d="M245.99,177c-3.92-2.91-6.72-7.07-9.12-11.32,4.83,8.58,13.76,12.54,23.07,13.72-4.14,2.71-10.32.3-13.95-2.39Z"/>
    <path d="M253.93,175.79c-3.92-2.91-6.72-7.07-9.12-11.32,4.83,8.58,13.76,12.54,23.07,13.72-4.14,2.71-10.32.3-13.95-2.39Z"/>
    <path d="M247.48,217.16c-1.99,3.49-2.89,7.94-3.47,12.4,1.17-9,6.4-14.43,12.61-17.32-.56-.27-1.3-1.09-1.85-.97-2.93.67-5.74,3.16-7.29,5.89Z"/>
    <path d="M251.55,218.2c-1.34,3-1.72,6.69-1.84,10.38.24-7.42,4.06-12.26,8.89-15.11-.48-.18-1.15-.79-1.58-.64-2.33.78-4.42,3.03-5.47,5.37Z"/>
    <path d="M256.46,218.13c-.73,2.11-.77,4.62-.63,7.11-.27-5.02,2.02-8.52,5.12-10.72-.33-.09-.82-.46-1.11-.34-1.53.66-2.81,2.31-3.38,3.95Z"/>
    <path d="M334.12,217.16c1.99,3.49,2.89,7.94,3.47,12.4-1.17-9-6.4-14.43-12.61-17.32.56-.27,1.3-1.09,1.85-.97,2.93.67,5.74,3.16,7.29,5.89Z"/>
    <path d="M330.05,218.2c1.34,3,1.72,6.69,1.84,10.38-.24-7.42-4.06-12.26-8.89-15.11.48-.18,1.15-.79,1.58-.64,2.33.78,4.42,3.03,5.47,5.37Z"/>
    <path d="M325.15,218.13c.73,2.11.77,4.62.63,7.11.27-5.02-2.02-8.52-5.12-10.72.33-.09.82-.46,1.11-.34,1.53.66,2.81,2.31,3.38,3.95Z"/>
    <path d="M339.09,177.31c3.92-2.91,6.72-7.07,9.12-11.32-4.83,8.58-13.76,12.54-23.07,13.72,4.14,2.71,10.32.3,13.95-2.39Z"/>
    <path d="M332.85,175.48c3.92-2.91,6.72-7.07,9.12-11.32-4.83,8.58-13.76,12.54-23.07,13.72,4.14,2.71,10.32.3,13.95-2.39Z"/>
    <path d="M324.92,174.28c3.92-2.91,6.72-7.07,9.12-11.32-4.83,8.58-13.76,12.54-23.07,13.72,4.14,2.71,10.32.3,13.95-2.39Z"/>
    <g>
      <circle cx="281.74" cy="166.77" r="1.6"/>
      <circle cx="278.68" cy="163.45" r="1.02"/>
      <circle cx="275.49" cy="161.76" r="1.02"/>
      <circle cx="271.66" cy="160.42" r="1.02"/>
      <circle cx="267.87" cy="159.41" r="1.02"/>
      <circle cx="263.72" cy="159.41" r="1.02"/>
      <circle cx="259.94" cy="160.75" r="1.02"/>
    </g>
    <g>
      <circle cx="299.46" cy="166.85" r="1.6"/>
      <circle cx="302.52" cy="163.53" r="1.02"/>
      <circle cx="305.71" cy="161.84" r="1.02"/>
      <circle cx="309.54" cy="160.49" r="1.02"/>
      <circle cx="313.32" cy="159.48" r="1.02"/>
      <circle cx="317.47" cy="159.48" r="1.02"/>
      <circle cx="321.26" cy="160.82" r="1.02"/>
    </g>
  </g>
  <g id="mond">
    <path class="cls-8" d="M279.78,242.02c-.2,0,2.82-3.47,4.14-4.8s4.01-2,5.09-.38c1.31-2.06,4.65-1.39,6.31.39s2.4,4.24,3.94,6.13c-2.64.22-5.35-.59-7.44-2.21-1.37,1.39-3.98,1.18-5.12-.4-1.88,1.58-4.61,2.08-6.92,1.27"/>
    <path class="cls-6" d="M283.73,245.53c3.06,1.08,6.35,1.5,9.59,1.23"/>
  </g>
  <g id="knieën">
    <ellipse class="cls-3" cx="329.1" cy="555.98" rx="20.12" ry="22.43" transform="translate(-19.4 11.95) rotate(-2.02)"/>
    <ellipse class="cls-3" cx="249.31" cy="555.98" rx="20.12" ry="22.43" transform="translate(-19.45 9.14) rotate(-2.02)"/>
  </g>
  <g id="schaduw_ebn_licht" data-name="schaduw ebn licht">
    <path class="cls-12" d="M248.05,200.78c10.53,2.88,22.18,3.79,33.1,3.65-3.23,6.05-10.64,11.01-17.66,9.94s-13.17-6.41-15.44-13.59"/>
    <path class="cls-12" d="M333.45,200.78c-10.53,2.88-22.18,3.79-33.1,3.65,3.23,6.05,10.64,11.01,17.66,9.94s13.17-6.41,15.44-13.59"/>
    <ellipse class="cls-10" cx="265.51" cy="113.77" rx="3.42" ry="3.35"/>
    <ellipse class="cls-10" cx="311.45" cy="113.95" rx="3.42" ry="3.35"/>
    <circle class="cls-11" cx="266.6" cy="189.26" r="2.29"/>
    <circle class="cls-11" cx="314.34" cy="189.26" r="2.29"/>
    <path class="cls-11" d="M284.09,238.11c1.47.19,3.06-.48,3.55-1.5-1.48-.39-3.32.42-3.51,1.56"/>
    <path class="cls-11" d="M293.15,241.01c1.18.88,2.73,1.41,3.45,1.19-1.13-.98-2.93-1.58-3.43-1.14"/>
    <path class="cls-2" d="M279.42,272.87c3.25.94,7.05-2.43,8.54-5.46s5.21-7.2,5.19-10.58c-6.34,1.1-11.24-2.71-14.9-5.23,1.14,6.63,3.11,11.82,2.06,18.52"/>
    <path class="cls-1" d="M211.59,628.19c1.46.97,3.17,1.9,4.87,1.48,3.27-.8,3.32-5.88.89-8.21s-6.01-2.83-9.2-3.87c-7.32-2.39-11.83-8-15.84-13.97,1.88,9.78,11.21,19.2,19.28,24.56Z"/>
    <path class="cls-1" d="M218.27,605.72c.67.45,1.47.88,2.25.69,1.51-.37,1.53-2.72.41-3.79s-2.77-1.31-4.25-1.79c-3.38-1.11-5.46-3.7-7.32-6.45.87,4.52,5.18,8.87,8.9,11.35Z"/>
    <path class="cls-1" d="M366.9,628.19c-1.46.97-3.17,1.9-4.87,1.48-3.27-.8-3.32-5.88-.89-8.21s6.01-2.83,9.2-3.87c7.32-2.39,11.83-8,15.84-13.97-1.88,9.78-11.21,19.2-19.28,24.56Z"/>
    <path class="cls-1" d="M360.23,605.72c-.67.45-1.47.88-2.25.69-1.51-.37-1.53-2.72-.41-3.79s2.77-1.31,4.25-1.79c3.38-1.11,5.46-3.7,7.32-6.45-.87,4.52-5.18,8.87-8.9,11.35Z"/>
  </g>
</svg>